<svg width="486" height="243" viewBox="0 0 486 243" fill="none" xmlns="http://www.w3.org/2000/svg">
<path d="M40.4999 85.6819L74.7021 85.7872C78.7857 85.8019 82.7355 87.2445 85.8672 89.8652C88.999 92.4858 91.1154 96.1193 91.8498 100.136C93.5306 109.37 88.7435 117.244 81.3198 119.362C81.1049 119.465 80.9058 119.599 80.7285 119.759C87.7674 121.784 91.9713 126.441 93.1539 133.419C95.0979 144.933 88.7556 154.398 76.7514 155.751C74.0784 155.994 71.3892 156.099 68.7041 156.063L40.4756 156.119L40.4999 85.6819ZM55.6145 142.625C55.8004 142.72 55.9998 142.785 56.2058 142.819L70.3727 142.771C75.2327 142.536 78.1406 139.547 78.2864 135.128C78.4322 130.71 75.7349 127.486 70.9964 126.915C67.9508 126.672 64.893 126.591 61.8434 126.672H55.659L55.6145 142.625ZM55.5173 113.566H68.2829C69.0929 113.59 69.8948 113.542 70.6926 113.412C73.6086 112.821 75.8685 111.306 76.6461 108.228C76.9753 107.14 77.0452 105.989 76.8504 104.869C76.6555 103.749 76.2013 102.69 75.524 101.776C74.8467 100.863 73.9651 100.12 72.9497 99.6085C71.9343 99.0966 70.8132 98.8294 69.6761 98.8282C67.3149 98.7067 64.9376 98.8282 62.5805 98.8282H55.6145C55.6145 99.3425 55.5173 99.6544 55.5173 99.9622L55.5578 113.57L55.5173 113.566ZM312.356 157.363L307.018 156.391C293.232 153.082 286.213 141.215 287.416 128.11C288.388 117.175 293.961 109.075 304.495 105.43C319.213 100.246 336.288 107.244 338.799 126.789C339.131 129.373 339.11 132.002 339.272 134.889H301.251C302.126 139.749 304.56 143.103 308.804 144.901C315.697 147.817 322.153 146.367 328.22 142.447C328.625 142.212 328.909 141.94 329.261 141.689C329.377 141.677 329.493 141.677 329.609 141.689L335.55 150.429L329.812 153.973C326.183 155.755 322.238 156.808 318.208 157.1C317.744 157.172 317.286 157.283 316.839 157.432L312.356 157.363ZM326.146 125.55C326.41 119.232 320.387 114.404 312.757 114.704C306.419 114.947 300.777 120.326 301.417 125.55H326.146ZM366.93 157.363L360.357 156.014C350.171 153.26 342.82 144.391 342.026 133.869C341.152 123.857 344.051 115.36 352.095 109.054C364.245 99.4721 388.221 101.643 392.979 124.307C393.314 125.936 393.528 127.587 393.619 129.248C393.741 131.005 393.619 132.783 393.619 134.812H355.954C356.214 137.445 357.36 139.907 359.207 141.803C363.378 146.112 368.594 146.93 374.192 145.934C377.841 145.359 381.261 143.786 384.074 141.39L390.149 150.292C388.529 151.345 387.127 152.479 385.556 153.329C381.649 155.416 377.352 156.672 372.936 157.019C372.419 157.101 371.906 157.212 371.401 157.351L366.93 157.363ZM356.019 125.538H380.724C381.048 119.41 375.159 114.546 367.772 114.684C361.219 114.822 355.541 120.006 356.015 125.538H356.019ZM117.069 157.363L112.209 156.391C102.258 153.993 96.4344 146.557 96.4344 136.343V105.219H109.832V134.849C109.832 139.045 111.095 142.617 115.077 144.431C119.386 146.375 123.816 146.375 127.794 143.459C130.71 141.382 131.532 138.194 131.54 134.78C131.54 125.6 131.54 116.4 131.54 107.179V105.154H144.812V136.027C144.812 147.679 137.53 155.751 125.87 156.966C125.303 157.023 124.736 157.209 124.161 157.371L117.069 157.363ZM243.729 155.905V85.7305H292.515V97.0421C292.612 98.5406 292.049 98.8241 290.672 98.8079C281.042 98.7593 271.411 98.8079 261.78 98.8079H258.742V113.566H282.346C283.82 113.566 284.16 113.971 284.128 115.401V126.684H258.673V155.909L243.729 155.905ZM397.074 155.876V106.936C397.074 104.879 397.074 104.859 399.208 104.879L421.281 105.203C431.73 106.013 439.891 110.719 443.766 121.018C447.695 131.495 444.739 143.447 436.707 149.988C432.123 153.729 426.419 155.831 420.503 155.957L397.754 156.055C397.52 156.014 397.289 155.957 397.066 155.881L397.074 155.876ZM409.872 145.103H417.259C425.926 145.103 431.386 140.243 432.358 131.589C433.058 125.404 429.709 119.236 424.367 117.025C419.677 115.081 414.769 116.122 409.868 115.81L409.872 145.103ZM171.821 116.64H149.04V105.162H190.147V111.642C190.214 112.567 190.095 113.495 189.796 114.372C189.498 115.249 189.026 116.058 188.41 116.749L168.079 142.41L166.807 144.091H190.35V155.828H148.959V146.217C148.959 145.675 149.526 145.099 149.931 144.605C156.862 135.763 163.806 126.931 170.764 118.11C171.096 117.705 171.331 117.333 171.817 116.596L171.821 116.64ZM194.096 116.693V106.406C194.096 106.001 194.153 105.669 194.201 105.191H235.187V114.376C235.053 114.892 234.777 115.359 234.39 115.725C227.316 124.689 220.244 133.639 213.176 142.576L211.973 144.245H234.045C235.277 144.245 235.746 144.545 235.665 145.865V155.933H194.181V146.1C194.181 145.695 194.619 145.265 194.91 144.885L215.249 119.021L217.031 116.721L194.096 116.693Z" fill="black"/>
</svg>
