<svg width="784" height="392" viewBox="0 0 784 392" fill="none" xmlns="http://www.w3.org/2000/svg">
<path d="M356.53 224.44C355.191 229.348 353.853 236.487 347.607 237.825C344.483 238.272 341.36 237.825 339.129 235.148C334.668 228.456 334.222 219.979 333.776 211.502C332.883 193.655 331.991 174.916 337.345 158.854C338.683 156.177 341.36 153.5 344.483 153.5C348.053 153.054 351.622 154.839 352.961 157.962C356.53 164.654 356.53 172.685 357.422 180.27C359.207 194.994 358.761 210.163 356.53 224.44V224.44ZM367.684 147.254C360.545 138.331 349.391 134.762 338.237 137.885C327.529 140.115 319.944 151.27 317.267 161.085C311.913 179.824 312.36 202.132 315.037 221.763C317.267 233.81 321.729 247.641 334.668 252.995C344.483 256.564 356.976 255.226 364.561 248.087C376.607 235.595 377.946 217.748 378.838 200.794C379.284 182.947 378.392 165.993 370.361 151.27L367.684 147.254ZM137.017 231.579C135.679 234.702 133.002 238.272 129.432 238.718C126.755 239.164 124.078 238.272 122.294 236.487C118.278 232.918 118.278 228.01 116.94 223.102C114.775 204.405 115.075 185.504 117.832 166.885C119.171 161.978 120.509 155.285 126.755 153.947C130.771 153.054 134.34 155.731 136.571 159.301C141.033 170.008 141.033 182.947 141.033 195.44C140.586 207.932 140.586 220.425 137.017 231.579ZM127.648 136.992C116.94 137.438 107.124 144.577 102.663 153.947C97.3086 166.439 95.5239 180.27 95.5239 194.547C95.9701 212.84 95.9701 231.133 106.678 244.964C112.478 252.995 121.401 255.672 131.217 254.333C140.586 253.887 149.51 246.749 153.525 238.272C159.772 224.887 161.11 209.271 161.11 193.209C160.664 177.593 159.772 161.978 152.633 149.485C146.833 141.454 137.91 136.546 127.648 136.992ZM212.419 198.563C203.496 189.194 188.772 184.286 185.649 171.347C185.203 165.101 184.311 157.07 191.003 153.5C192.788 152.608 195.018 153.054 196.803 153.5C199.926 155.285 201.265 158.408 201.711 161.978C202.603 165.993 202.157 171.347 202.603 175.809H220.896C221.342 166.439 220.896 157.516 216.881 149.485C214.45 144.886 210.512 141.262 205.726 139.223C197.249 135.208 184.757 136.1 177.172 142.346C166.91 150.823 164.233 164.654 166.91 177.147C170.479 191.424 186.095 199.455 196.357 209.271C202.157 214.179 203.942 220.871 203.049 228.01C202.603 232.471 200.372 237.379 195.465 238.718C192.788 239.164 190.111 238.718 188.326 236.933C182.526 230.687 183.864 220.871 183.864 212.394H164.679C163.787 223.994 164.679 236.041 171.818 244.964C178.957 252.995 189.665 255.226 200.372 253.441C210.188 251.656 219.111 243.179 221.342 233.81C224.465 221.763 222.235 207.486 212.419 198.563V198.563ZM490.379 227.117C489.041 231.133 487.702 236.487 482.794 238.272C478.779 239.61 475.209 237.825 472.979 235.148C469.856 231.133 469.855 226.225 468.963 221.763C466.286 204.363 467.179 185.624 468.963 168.224C469.855 163.316 471.64 157.962 476.102 155.285C479.225 153.947 483.24 154.393 485.917 157.07C490.825 163.316 490.825 171.347 492.164 179.378C493.056 194.547 493.056 211.502 490.379 227.117V227.117ZM475.656 137.438C465.84 137.885 456.917 145.916 453.347 154.393C446.655 170.455 446.209 189.194 447.101 207.932C448.44 225.333 450.67 245.856 469.409 253.441C479.225 256.564 491.271 255.226 498.856 247.641C509.564 236.041 511.349 220.425 512.687 204.809C513.133 186.963 512.241 169.116 505.549 153.947C500.641 142.792 488.594 135.208 475.656 137.438" fill="black" fill-opacity="0.99"/>
<path d="M91.0623 206.594H71.8772C71.4311 216.409 71.8772 227.117 67.4156 235.148C66.0771 237.825 62.9539 238.718 59.8308 238.271C56.2615 237.379 54.4768 233.364 53.1383 230.241C48.6767 212.394 48.6767 190.532 50.4614 171.347C51.3537 165.547 51.7998 159.3 56.2615 154.839C58.0461 153.5 60.7231 153.054 62.9539 153.946C66.9694 155.731 68.3079 160.193 69.2002 164.208C70.0926 170.008 70.0926 176.255 70.9849 182.055H90.1699C90.1699 170.455 88.8315 158.854 83.0313 149.485C77.2312 139.223 65.1848 135.208 54.0307 137.885C40.6457 140.562 34.3995 154.839 32.1686 166.439C32.1686 167.778 31.2763 169.116 31.7225 170.455C31.7225 170.455 31.2763 170.455 31.2763 170.901C29.4916 181.162 29.4916 191.87 29.9378 202.132C31.2763 218.194 31.7225 234.256 41.0919 246.749C48.2305 255.672 59.8308 257.457 70.5387 254.333C87.493 248.087 90.6161 230.241 91.5084 214.179C91.0623 211.502 91.9546 208.825 91.0623 206.594V206.594ZM267.743 205.255L267.297 206.148L253.466 140.115H226.696V252.549H244.097V174.916L253.912 223.102L259.712 252.549H273.543L289.159 178.486V252.549H307.452V139.669H281.574L267.743 205.255ZM421.224 192.763C417.208 197.671 410.516 197.671 404.269 197.671V156.623C404.716 156.177 404.269 155.731 404.716 155.731C411.854 155.285 419.439 156.177 422.562 163.316C427.024 171.347 427.47 184.732 421.224 192.763V192.763ZM418.1 139.669H384.192V252.103H403.823V212.84H414.977C423.008 212.394 430.147 210.163 435.947 203.917C447.101 192.317 447.993 173.132 442.64 158.408C438.624 149.039 428.808 140.115 418.1 139.669" fill="black" fill-opacity="0.99"/>
<path d="M559.534 252.549V237.379H539.457V139.669H520.272V252.549H559.534ZM563.996 139.669H583.181V252.549H563.996V139.669ZM586.75 139.669V155.731H603.705V252.549H622.444V155.731H638.952V139.669H586.75Z" fill="black" fill-opacity="0.99"/>
<path d="M656.798 205.255L662.598 164.654V164.208L668.844 205.702H656.798V205.255ZM649.213 139.669L630.474 252.549H649.213L654.567 220.871H671.522L676.875 252.103H694.722L675.537 139.223H649.213V139.669ZM738.446 139.669V208.379L720.153 139.669H698.737V252.549H714.799V181.163C715.692 183.393 733.538 252.549 733.538 252.549H754.062V139.669H738.446Z" fill="black" fill-opacity="0.99"/>
</svg>
