<svg width="270" height="270" viewBox="0 0 270 270" fill="none" xmlns="http://www.w3.org/2000/svg">
<path d="M263.536 134.332C263.536 206.846 204.767 265.615 132.253 265.615C59.7511 265.615 0.988281 206.846 0.988281 134.332C0.988281 61.8112 59.7524 3.03491 132.253 3.03491C204.767 3.03491 263.536 61.8112 263.536 134.332Z" fill="black"/>
<path d="M257.149 77.6818L257.671 77.5293C257.887 78.4243 258.471 78.8496 259.385 78.8496C259.766 78.8496 260.071 78.7348 260.273 78.5255C260.476 78.3028 260.603 78.0179 260.603 77.644C260.603 77.1877 260.311 76.8502 259.752 76.6031C259.231 76.3804 258.711 76.19 258.178 75.9686C257.619 75.6581 257.353 75.2383 257.353 74.6794C257.353 74.184 257.48 73.8222 257.784 73.536C258.09 73.2511 258.521 73.0918 259.054 73.0918C259.535 73.0918 259.943 73.2254 260.285 73.486C260.628 73.7141 260.857 74.0827 260.996 74.5525L260.514 74.7051C260.272 73.9369 259.79 73.5494 259.054 73.5494C258.71 73.5494 258.418 73.6507 258.202 73.8357C257.961 74.0449 257.887 74.3176 257.887 74.6794C257.887 74.9022 257.936 75.0979 258.089 75.2383C258.24 75.4097 258.571 75.588 259.104 75.7837C259.929 76.1077 260.476 76.3804 260.755 76.6544C261.009 76.9015 261.136 77.2566 261.136 77.7075C261.136 78.2029 260.958 78.6093 260.601 78.9076C260.246 79.1682 259.828 79.3072 259.307 79.3072C258.722 79.3072 258.254 79.1803 257.911 78.9076C257.581 78.6592 257.328 78.2272 257.149 77.6818Z" fill="black"/>
<path d="M262.914 79.2182H262.355V73.1877H263.32L264.996 78.2975H265.023L266.684 73.1877H267.663V79.2182H267.103V73.6373L265.275 79.2182H264.742L262.914 73.6373V79.2182Z" fill="black"/>
<path d="M46.3765 173.86C48.6364 163.069 50.9787 139.136 53.9811 110.392L64.1763 110.367L64.8877 105.866L54.54 105.891C55.4796 96.9975 57.2062 77.8072 65.5155 74.3539C67.7632 78.2514 69.9205 81.2673 74.6941 81.3564C77.7856 81.4266 80.5153 80.0482 80.5666 76.6773C80.6746 71.9104 73.3428 69.9678 69.5979 69.9043C62.6278 69.7896 42.8409 72.3856 37.966 99.0292L36.7024 105.891L28.6713 105.929L27.9409 110.456L36.0409 110.481C33.6987 131.347 29.083 173.555 27.8275 179.345C25.0411 192.04 24.0691 195.087 17.7214 198.542C18.4896 199.9 19.2699 201.232 20.0893 202.565C30.9312 199.253 43.1257 189.35 46.3765 173.86Z" fill="white"/>
<path d="M103.025 127.881C103.025 122.549 102.651 109.91 94.8483 109.91C83.3139 109.91 81.702 132.091 81.702 140.152C81.702 145.345 82.0827 157.991 89.879 157.991C101.401 157.991 103.025 135.811 103.025 127.881ZM63.7375 143.365C63.7375 122.911 77.112 105.193 99.306 105.193C112.948 105.193 120.991 111.268 120.991 124.523C120.991 144.977 107.615 162.725 85.4226 162.725C71.7876 162.726 63.7375 156.645 63.7375 143.365Z" fill="white"/>
<path d="M164.989 127.881C164.989 122.549 164.622 109.91 156.825 109.91C145.298 109.91 143.672 132.091 143.672 140.152C143.672 145.345 144.053 157.991 151.849 157.991C163.389 157.991 164.989 135.811 164.989 127.881ZM125.701 143.365C125.701 122.911 139.077 105.193 161.27 105.193C174.93 105.193 182.967 111.268 182.967 124.523C182.967 144.977 169.598 162.725 147.404 162.725C133.763 162.726 125.701 156.645 125.701 143.365Z" fill="white"/>
<path d="M222.007 137.423C224.964 129.754 225.981 122.683 227.594 111.148C226.971 110.901 226.222 110.787 225.613 110.787C211.965 110.787 205.515 130.611 205.515 141.652C205.515 144.369 206.137 150.945 210.098 150.945C215.557 150.945 220.382 141.652 222.007 137.423ZM250.383 155.883C242.575 159.628 233.053 162.714 226.476 162.714C223.125 162.714 223.251 157.395 223.251 155.149C223.251 152.545 223.505 148.952 224.115 142.02L223.861 141.766C219.403 150.705 210.72 162.716 199.56 162.716C190.66 162.716 186.928 153.422 186.928 145.729C186.928 126.271 202.303 106.053 223.746 106.053H228.203C229.955 92.5575 230.056 86.8511 230.056 82.7687C230.056 81.4039 230.056 80.1659 228.57 80.1659C227.44 80.1659 225.739 80.5209 221.372 81.8993L220.279 78.3002C229.065 75.2019 238.638 73.2283 247.157 72.9812C248.273 72.9812 248.654 72.9812 248.654 74.8401C248.654 86.2409 240.084 145.106 240.084 151.049C240.084 152.674 240.084 154.782 241.709 154.782C242.572 154.782 245.442 153.792 249.275 152.434L250.383 155.883Z" fill="white"/>
<path d="M82.3245 193.235V177.352H85.8102V179.067C87.2007 178.077 88.8126 177.061 90.685 177.061C93.84 177.061 95.3763 179.144 95.3763 182.369V193.236H91.5922V182.925C91.5922 180.767 90.9186 180.108 89.6442 180.108C88.0066 180.108 86.743 181.046 86.1085 181.783V193.234H82.3245V193.235Z" fill="white"/>
<path d="M111.597 183.333C111.54 181.136 110.371 179.867 108.536 179.867C106.72 179.867 105.558 181.136 105.482 183.333H111.597ZM105.482 185.91C105.558 189.199 107.019 190.493 108.797 190.493C110.554 190.493 111.374 189.681 112.32 188.59L115.075 190.291C113.622 192.551 111.476 193.516 108.423 193.516C104.303 193.516 101.725 190.33 101.725 185.301C101.725 180.262 104.302 177.061 108.618 177.061C112.764 177.011 115.074 180.54 115.074 184.348V185.91H105.482Z" fill="white"/>
<path d="M122.45 177.352V172.135H126.234V177.352H129.352V180.413H126.234V189.401C126.234 190.238 126.679 190.493 127.613 190.493C128.184 190.493 128.794 190.303 129.352 190.164V193.312C128.305 193.413 127.39 193.528 126.349 193.528C123.544 193.528 122.452 192.144 122.452 189.859V180.413H120.269V177.352H122.45Z" fill="white"/>
<path d="M134.017 177.352H137.616L139.775 187.242H139.825L142.123 177.352H145.615L147.837 187.242H147.887L150.173 177.352H153.754L149.665 193.235H146.224L143.901 183.333H143.825L141.514 193.235H138.098L134.017 177.352Z" fill="white"/>
<path d="M165.332 180.108C163.225 180.108 162.235 181.757 162.235 185.288C162.235 188.816 163.225 190.492 165.332 190.492C167.441 190.492 168.444 188.816 168.444 185.288C168.442 181.757 167.439 180.108 165.332 180.108ZM165.332 177.059C169.649 177.059 172.238 180.272 172.238 185.288C172.238 190.341 169.649 193.514 165.332 193.514C161.028 193.514 158.451 190.341 158.451 185.288C158.451 180.272 161.028 177.059 165.332 177.059Z" fill="white"/>
<path d="M178.334 193.235V177.352H181.799V180.081H181.863C182.777 178.177 184.046 177.111 186.333 177.059V181.046C186.13 181.034 185.901 181.034 185.647 181.034C183.766 181.034 182.116 183.203 182.116 183.585V193.234H178.334V193.235Z" fill="white"/>
<path d="M192.387 193.235V171.207H196.171V183.484H196.285L200.969 177.352H205.299L200.615 183.281L205.629 193.235H201.592L198.087 186.125L196.171 188.334V193.235H192.387Z" fill="white"/>
</svg>
