<svg width="522" height="261" viewBox="0 0 522 261" fill="none" xmlns="http://www.w3.org/2000/svg">
<path d="M415.49 82.6936C401.244 82.6936 384.301 92.3768 381.038 122.731V54.2881H344.82V71.14C350.967 71.14 354.695 74.2111 354.695 80.362V122.635C350.78 90.8803 335.328 82.5066 327.881 82.5979C320.06 82.5979 312.426 87.3481 310.098 96.1003V84.5555H278.909V102.521C273.976 87.9918 258.799 82.5979 249.86 82.5979C244.927 82.5979 223.694 84.8337 217.552 113.509C211.78 75.7944 177.423 78.5915 162.99 91.163C162.251 81.667 160.293 68.817 150.884 61.3655C145.764 57.3635 138.13 54.1011 127.42 54.1011H70.5134V74.3981C80.3879 74.4851 80.7534 83.8942 80.7534 85.3862V146.373C80.7534 153.264 78.1433 157.727 70.4177 157.827V178.033H123.118V157.457C115.484 157.37 112.969 153.268 112.969 146.378V129.247H121.909C132.618 128.873 141.553 130.178 151.236 119.751C150.958 122.64 150.214 128.503 150.214 131.483C149.84 146.473 151.606 160.345 160.641 169.472C160.828 169.659 169.863 179.999 184.849 180.182C193.227 180.269 212.223 178.694 217.256 150.106C218.374 153.925 224.521 180.182 251.613 180.182C278.896 180.182 284.573 155.321 285.969 147.687V178.224C285.882 186.324 279.922 190.047 276.194 190.143V206.903H320.564V190.052C315.632 189.399 310.973 184.832 310.973 177.576L310.599 165.844C314.514 176.554 324.936 180.09 329.217 180.09C334.337 180.09 345.977 177.297 349.327 156.905V177.763H387.224V157.187C392.065 188.847 447.184 188.473 450.538 148.618H424.373C423.351 154.299 420.836 158.862 416.086 158.862C410.222 158.862 407.708 152.063 407.334 144.616C407.147 141.919 407.055 139.03 407.147 137.264H451.282C451.747 128.234 452.213 114.266 445.509 101.046C440.202 90.8063 429.958 82.7022 415.434 82.7022L415.49 82.6936ZM120.334 106.066H112.887V77.4867H120.238C126.011 77.4867 129.269 82.3282 129.269 91.6372C129.356 101.877 127.033 105.883 120.33 106.07L120.334 106.066ZM176.571 118.072C176.945 110.529 179.551 103.36 185.51 103.36C191.374 103.36 193.705 110.529 194.08 118.072C194.167 120.586 194.267 120.769 194.08 122.64H176.575C176.388 120.778 176.388 120.682 176.575 118.072H176.571ZM193.884 148.609C192.953 154.29 190.347 158.853 185.597 158.758C179.733 158.758 177.219 151.959 176.845 144.511C176.658 141.814 176.566 138.926 176.658 137.16H215.39C215.477 141.627 215.669 142.841 216.782 148.513H193.879L193.884 148.609ZM251.521 159.036C244.631 158.949 241.93 146.747 241.93 131.474C241.93 116.293 244.818 103.822 251.521 103.913C258.412 104 261.113 116.202 261.113 131.474C261.113 146.747 258.503 159.127 251.521 159.036ZM318.933 158.849C313.539 158.849 311.669 153.077 311.669 145.347V117.133C311.39 107.541 314.183 102.982 319.586 103.169C325.171 103.447 328.429 110.616 328.429 131.566C328.516 150.654 324.893 158.849 318.933 158.849V158.849ZM424.612 122.631H407.108C406.921 120.769 407.021 120.586 407.108 118.063C407.482 110.52 409.996 103.913 415.86 103.913C421.724 103.913 424.238 110.525 424.612 118.063C424.799 120.673 424.799 120.76 424.612 122.631Z" fill="black"/>
</svg>
