<svg width="486" height="243" fill="none" xmlns="http://www.w3.org/2000/svg"><path d="M40.5 85.682l34.202.105a17.496 17.496 0 0117.148 14.349c1.68 9.234-3.106 17.108-10.53 19.226a2.489 2.489 0 00-.591.397c7.038 2.025 11.242 6.682 12.425 13.66 1.944 11.514-4.398 20.979-16.403 22.332a77.467 77.467 0 01-8.047.312l-28.228.056.024-70.437zm15.114 56.943c.186.095.386.16.592.194l14.167-.048c4.86-.235 7.768-3.224 7.913-7.643.146-4.418-2.551-7.642-7.29-8.213-3.045-.243-6.103-.324-9.153-.243H55.66l-.044 15.953zm-.097-29.059h12.766a12.61 12.61 0 002.41-.154c2.916-.591 5.175-2.106 5.953-5.184a7.289 7.289 0 00-6.97-9.4c-2.361-.121-4.738 0-7.096 0h-6.965c0 .514-.098.826-.098 1.134l.04 13.608-.04-.004zm256.839 43.797l-5.338-.972c-13.786-3.309-20.805-15.176-19.602-28.281.972-10.935 6.545-19.035 17.079-22.68 14.718-5.184 31.793 1.814 34.304 21.359.332 2.584.311 5.213.473 8.1h-38.021c.875 4.86 3.309 8.214 7.553 10.012 6.893 2.916 13.349 1.466 19.416-2.454.405-.235.689-.507 1.041-.758.116-.012.232-.012.348 0l5.941 8.74-5.738 3.544a31.49 31.49 0 01-11.604 3.127 8.405 8.405 0 00-1.369.332l-4.483-.069zm13.79-31.813c.264-6.318-5.759-11.146-13.389-10.846-6.338.243-11.98 5.622-11.34 10.846h24.729zm40.784 31.813l-6.573-1.349c-10.186-2.754-17.537-11.623-18.331-22.145-.874-10.012 2.025-18.509 10.069-24.815 12.15-9.582 36.126-7.411 40.884 15.253a33.67 33.67 0 01.64 4.941c.122 1.757 0 3.535 0 5.564h-37.665a11.654 11.654 0 003.253 6.991c4.171 4.309 9.387 5.127 14.985 4.131a20.056 20.056 0 009.882-4.544l6.075 8.902c-1.62 1.053-3.022 2.187-4.593 3.037a32.127 32.127 0 01-12.62 3.69c-.517.082-1.03.193-1.535.332l-4.471.012zm-10.911-31.825h24.705c.324-6.128-5.565-10.992-12.952-10.854-6.553.138-12.231 5.322-11.757 10.854h.004zm-238.95 31.825l-4.86-.972c-9.951-2.398-15.775-9.834-15.775-20.048v-31.124h13.398v29.63c0 4.196 1.263 7.768 5.245 9.582 4.309 1.944 8.739 1.944 12.717-.972 2.916-2.077 3.738-5.265 3.746-8.679v-29.626h13.272v30.873c0 11.652-7.282 19.724-18.942 20.939-.567.057-1.134.243-1.709.405l-7.092-.008zm126.66-1.458V85.731h48.786v11.311c.097 1.499-.466 1.782-1.843 1.766-9.63-.049-19.261 0-28.892 0h-3.038v14.758h23.604c1.474 0 1.814.405 1.782 1.835v11.283h-25.455v29.225l-14.944-.004zm153.345-.029v-48.94c0-2.057 0-2.077 2.134-2.057l22.073.324c10.449.81 18.61 5.516 22.485 15.815 3.929 10.477.973 22.429-7.059 28.97a26.523 26.523 0 01-16.204 5.969l-22.749.098a4.59 4.59 0 01-.688-.174l.008-.005zm12.798-10.773h7.387c8.667 0 14.127-4.86 15.099-13.514.7-6.185-2.649-12.353-7.991-14.564-4.69-1.944-9.598-.903-14.499-1.215l.004 29.293zM171.821 116.64H149.04v-11.478h41.107v6.48a6.91 6.91 0 01-1.737 5.107l-20.331 25.661-1.272 1.681h23.543v11.737h-41.391v-9.611c0-.542.567-1.118.972-1.612 6.931-8.842 13.875-17.674 20.833-26.495.332-.405.567-.777 1.053-1.514l.004.044zm22.275.053v-10.287c0-.405.057-.737.105-1.215h40.986v9.185c-.134.516-.41.983-.797 1.349a32446.527 32446.527 0 01-21.214 26.851l-1.203 1.669h22.072c1.232 0 1.701.3 1.62 1.62v10.068h-41.484V146.1c0-.405.438-.835.729-1.215l20.339-25.864 1.782-2.3-22.935-.028z" fill="#000"/></svg>