<svg width="784" height="392" fill="none" xmlns="http://www.w3.org/2000/svg"><path d="M356.53 224.44c-1.339 4.908-2.677 12.047-8.923 13.385-3.124.447-6.247 0-8.478-2.677-4.461-6.692-4.907-15.169-5.353-23.646-.893-17.847-1.785-36.586 3.569-52.648 1.338-2.677 4.015-5.354 7.138-5.354 3.57-.446 7.139 1.339 8.478 4.462 3.569 6.692 3.569 14.723 4.461 22.308 1.785 14.724 1.339 29.893-.892 44.17zm11.154-77.186c-7.139-8.923-18.293-12.492-29.447-9.369-10.708 2.23-18.293 13.385-20.97 23.2-5.354 18.739-4.907 41.047-2.23 60.678 2.23 12.047 6.692 25.878 19.631 31.232 9.815 3.569 22.308 2.231 29.893-4.908 12.046-12.492 13.385-30.339 14.277-47.293.446-17.847-.446-34.801-8.477-49.524l-2.677-4.016zm-230.667 84.325c-1.338 3.123-4.015 6.693-7.585 7.139-2.677.446-5.354-.446-7.138-2.231-4.016-3.569-4.016-8.477-5.354-13.385a214.979 214.979 0 01.892-56.217c1.339-4.907 2.677-11.6 8.923-12.938 4.016-.893 7.585 1.784 9.816 5.354 4.462 10.707 4.462 23.646 4.462 36.139-.447 12.492-.447 24.985-4.016 36.139zm-9.369-94.587c-10.708.446-20.524 7.585-24.985 16.955-5.354 12.492-7.14 26.323-7.14 40.6.447 18.293.447 36.586 11.155 50.417 5.8 8.031 14.723 10.708 24.539 9.369 9.369-.446 18.293-7.584 22.308-16.061 6.247-13.385 7.585-29.001 7.585-45.063-.446-15.616-1.338-31.231-8.477-43.724-5.8-8.031-14.723-12.939-24.985-12.493zm84.771 61.571c-8.923-9.369-23.647-14.277-26.77-27.216-.446-6.246-1.338-14.277 5.354-17.847 1.785-.892 4.015-.446 5.8 0 3.123 1.785 4.462 4.908 4.908 8.478.892 4.015.446 9.369.892 13.831h18.293c.446-9.37 0-18.293-4.015-26.324a22.668 22.668 0 00-11.155-10.262c-8.477-4.015-20.969-3.123-28.554 3.123-10.262 8.477-12.939 22.308-10.262 34.801 3.569 14.277 19.185 22.308 29.447 32.124 5.8 4.908 7.585 11.6 6.692 18.739-.446 4.461-2.677 9.369-7.584 10.708-2.677.446-5.354 0-7.139-1.785-5.8-6.246-4.462-16.062-4.462-24.539h-19.185c-.892 11.6 0 23.647 7.139 32.57 7.139 8.031 17.847 10.262 28.554 8.477 9.816-1.785 18.739-10.262 20.97-19.631 3.123-12.047.893-26.324-8.923-35.247zm277.96 28.554c-1.338 4.016-2.677 9.37-7.585 11.155-4.015 1.338-7.585-.447-9.815-3.124-3.123-4.015-3.124-8.923-4.016-13.385-2.677-17.4-1.784-36.139 0-53.539.892-4.908 2.677-10.262 7.139-12.939 3.123-1.338 7.138-.892 9.815 1.785 4.908 6.246 4.908 14.277 6.247 22.308.892 15.169.892 32.124-1.785 47.739zm-14.723-89.679c-9.816.447-18.739 8.478-22.309 16.955-6.692 16.062-7.138 34.801-6.246 53.539 1.339 17.401 3.569 37.924 22.308 45.509 9.816 3.123 21.862 1.785 29.447-5.8 10.708-11.6 12.493-27.216 13.831-42.832.446-17.846-.446-35.693-7.138-50.862-4.908-11.155-16.955-18.739-29.893-16.509" fill="#000" fill-opacity=".99"/><path d="M91.062 206.594H71.877c-.446 9.815 0 20.523-4.461 28.554-1.339 2.677-4.462 3.57-7.585 3.123-3.57-.892-5.354-4.907-6.693-8.03-4.461-17.847-4.461-39.709-2.677-58.894.893-5.8 1.339-12.047 5.8-16.508 1.785-1.339 4.462-1.785 6.693-.893 4.015 1.785 5.354 6.247 6.246 10.262.893 5.8.893 12.047 1.785 17.847H90.17c0-11.6-1.338-23.201-7.139-32.57-5.8-10.262-17.846-14.277-29-11.6-13.385 2.677-19.631 16.954-21.862 28.554 0 1.339-.893 2.677-.446 4.016 0 0-.447 0-.447.446-1.784 10.261-1.784 20.969-1.338 31.231 1.338 16.062 1.785 32.124 11.154 44.617 7.139 8.923 18.739 10.708 29.447 7.584 16.954-6.246 20.077-24.092 20.97-40.154-.447-2.677.446-5.354-.447-7.585zm176.681-1.339l-.446.893-13.831-66.033h-26.77v112.434h17.401v-77.633l9.815 48.186 5.8 29.447h13.831l15.616-74.063v74.063h18.293v-112.88h-25.878l-13.831 65.586zm153.481-12.492c-4.016 4.908-10.708 4.908-16.955 4.908v-41.048c.447-.446 0-.892.447-.892 7.138-.446 14.723.446 17.846 7.585 4.462 8.031 4.908 21.416-1.338 29.447zm-3.124-53.094h-33.908v112.434h19.631V212.84h11.154c8.031-.446 15.17-2.677 20.97-8.923 11.154-11.6 12.046-30.785 6.693-45.509-4.016-9.369-13.832-18.293-24.54-18.739m141.434 112.88v-15.17h-20.077v-97.71h-19.185v112.88h39.262zm4.462-112.88h19.185v112.88h-19.185v-112.88zm22.754 0v16.062h16.955v96.818h18.739v-96.818h16.508v-16.062H586.75zm70.048 65.586l5.8-40.601v-.446l6.246 41.494h-12.046v-.447zm-7.585-65.586l-18.739 112.88h18.739l5.354-31.678h16.955l5.353 31.232h17.847l-19.185-112.88h-26.324v.446zm89.233 0v68.71l-18.293-68.71h-21.416v112.88h16.062v-71.386c.893 2.23 18.739 71.386 18.739 71.386h20.524v-112.88h-15.616z" fill="#000" fill-opacity=".99"/></svg>