<svg width="270" height="270" fill="none" xmlns="http://www.w3.org/2000/svg"><path d="M263.536 134.332c0 72.514-58.769 131.283-131.283 131.283C59.751 265.615.988 206.846.988 134.332c0-72.52 58.764-131.297 131.265-131.297 72.514 0 131.283 58.776 131.283 131.297zm-6.387-56.65l.522-.153c.216.895.8 1.32 1.714 1.32.381 0 .686-.114.888-.324.203-.222.33-.507.33-.881 0-.456-.292-.794-.851-1.04-.521-.224-1.041-.414-1.574-.635-.559-.31-.825-.73-.825-1.29 0-.495.127-.857.431-1.143.306-.285.737-.444 1.27-.444.481 0 .889.133 1.231.394.343.228.572.597.711 1.066l-.482.153c-.242-.768-.724-1.156-1.46-1.156-.344 0-.636.102-.852.287-.241.209-.315.482-.315.843 0 .223.049.419.202.56.151.17.482.349 1.015.545.825.324 1.372.596 1.651.87.254.248.381.603.381 1.053 0 .496-.178.902-.535 1.2-.355.261-.773.4-1.294.4-.585 0-1.053-.127-1.396-.4-.33-.248-.583-.68-.762-1.225zm5.765 1.536h-.559v-6.03h.965l1.676 5.11h.027l1.661-5.11h.979v6.03h-.56v-5.58l-1.828 5.58h-.533l-1.828-5.58v5.58z" fill="#000"/><path d="M46.377 173.86c2.26-10.791 4.602-34.724 7.604-63.468l10.195-.025.712-4.501-10.348.025c.94-8.894 2.666-28.084 10.976-31.537 2.247 3.897 4.404 6.913 9.178 7.002 3.092.07 5.821-1.308 5.873-4.679.108-4.767-7.224-6.71-10.97-6.773-6.97-.114-26.756 2.482-31.631 29.125l-1.264 6.862-8.03.038-.731 4.527 8.1.025c-2.342 20.866-6.958 63.074-8.213 68.864-2.787 12.695-3.759 15.742-10.107 19.197.769 1.358 1.549 2.69 2.368 4.023 10.842-3.312 23.037-13.215 26.288-28.705zm56.648-45.979c0-5.332-.374-17.971-8.177-17.971-11.534 0-13.146 22.181-13.146 30.242 0 5.193.38 17.839 8.177 17.839 11.522 0 13.146-22.18 13.146-30.11zm-39.288 15.484c0-20.454 13.375-38.172 35.569-38.172 13.642 0 21.685 6.075 21.685 19.33 0 20.454-13.376 38.202-35.568 38.202-13.635.001-21.686-6.08-21.686-19.36zm101.252-15.484c0-5.332-.367-17.971-8.164-17.971-11.527 0-13.153 22.181-13.153 30.242 0 5.193.381 17.839 8.177 17.839 11.54 0 13.14-22.18 13.14-30.11zm-39.288 15.484c0-20.454 13.376-38.172 35.569-38.172 13.66 0 21.697 6.075 21.697 19.33 0 20.454-13.369 38.202-35.563 38.202-13.641.001-21.703-6.08-21.703-19.36zm96.306-5.942c2.957-7.669 3.974-14.74 5.587-26.275-.623-.247-1.372-.361-1.981-.361-13.648 0-20.098 19.824-20.098 30.865 0 2.717.622 9.293 4.583 9.293 5.459 0 10.284-9.293 11.909-13.522zm28.376 18.46c-7.808 3.745-17.33 6.831-23.907 6.831-3.351 0-3.225-5.319-3.225-7.565 0-2.604.254-6.197.864-13.129l-.254-.254c-4.458 8.939-13.141 20.95-24.301 20.95-8.9 0-12.632-9.294-12.632-16.987 0-19.458 15.375-39.676 36.818-39.676h4.457c1.752-13.495 1.853-19.202 1.853-23.284 0-1.365 0-2.603-1.486-2.603-1.13 0-2.831.355-7.198 1.733l-1.093-3.599c8.786-3.098 18.359-5.072 26.878-5.319 1.116 0 1.497 0 1.497 1.86 0 11.4-8.57 70.265-8.57 76.208 0 1.625 0 3.733 1.625 3.733.863 0 3.733-.99 7.566-2.348l1.108 3.449zM82.325 193.235v-15.883h3.485v1.715c1.39-.99 3.003-2.006 4.875-2.006 3.155 0 4.691 2.083 4.691 5.308v10.867h-3.784v-10.311c0-2.158-.673-2.817-1.948-2.817-1.637 0-2.901.938-3.535 1.675v11.451h-3.784v.001zm29.272-9.902c-.057-2.197-1.226-3.466-3.061-3.466-1.816 0-2.978 1.269-3.054 3.466h6.115zm-6.115 2.577c.076 3.289 1.537 4.583 3.315 4.583 1.757 0 2.577-.812 3.523-1.903l2.755 1.701c-1.453 2.26-3.599 3.225-6.652 3.225-4.12 0-6.698-3.186-6.698-8.215 0-5.039 2.577-8.24 6.893-8.24 4.146-.05 6.456 3.479 6.456 7.287v1.562h-9.592zm16.968-8.558v-5.217h3.784v5.217h3.118v3.061h-3.118v8.988c0 .837.445 1.092 1.379 1.092.571 0 1.181-.19 1.739-.329v3.148c-1.047.101-1.962.216-3.003.216-2.805 0-3.897-1.384-3.897-3.669v-9.446h-2.183v-3.061h2.181zm11.567 0h3.599l2.159 9.89h.05l2.298-9.89h3.492l2.222 9.89h.05l2.286-9.89h3.581l-4.089 15.883h-3.441l-2.323-9.902h-.076l-2.311 9.902h-3.416l-4.081-15.883zm31.315 2.756c-2.107 0-3.097 1.649-3.097 5.18 0 3.528.99 5.204 3.097 5.204 2.109 0 3.112-1.676 3.112-5.204-.002-3.531-1.005-5.18-3.112-5.18zm0-3.049c4.317 0 6.906 3.213 6.906 8.229 0 5.053-2.589 8.226-6.906 8.226-4.304 0-6.881-3.173-6.881-8.226 0-5.016 2.577-8.229 6.881-8.229zm13.002 16.176v-15.883h3.465v2.729h.064c.914-1.904 2.183-2.97 4.47-3.022v3.987c-.203-.012-.432-.012-.686-.012-1.881 0-3.531 2.169-3.531 2.551v9.649h-3.782v.001zm14.053 0v-22.028h3.784v12.277h.114l4.684-6.132h4.33l-4.684 5.929 5.014 9.954h-4.037l-3.505-7.11-1.916 2.209v4.901h-3.784z" fill="#fff"/></svg>