<svg width="522" height="261" fill="none" xmlns="http://www.w3.org/2000/svg"><path d="M415.49 82.694c-14.246 0-31.189 9.683-34.452 40.037V54.288H344.82V71.14c6.147 0 9.875 3.071 9.875 9.222v42.273c-3.915-31.755-19.367-40.128-26.814-40.037-7.821 0-15.455 4.75-17.783 13.502V84.556h-31.189v17.965c-4.933-14.53-20.11-19.923-29.049-19.923-4.933 0-26.166 2.236-32.308 30.911-5.772-37.715-40.129-34.918-54.562-22.346-.739-9.496-2.697-22.346-12.106-29.797-5.12-4.002-12.754-7.265-23.464-7.265H70.513v20.297c9.875.087 10.24 9.496 10.24 10.988v60.987c0 6.891-2.61 11.354-10.335 11.454v20.206h52.7v-20.576c-7.634-.087-10.149-4.189-10.149-11.079v-17.131h8.94c10.709-.374 19.644.931 29.327-9.496-.278 2.889-1.022 8.752-1.022 11.732-.374 14.99 1.392 28.862 10.427 37.989.187.187 9.222 10.527 24.208 10.71 8.378.087 27.374-1.488 32.407-30.076 1.118 3.819 7.265 30.076 34.357 30.076 27.283 0 32.96-24.861 34.356-32.495v30.537c-.087 8.1-6.047 11.823-9.775 11.919v16.76h44.37v-16.851c-4.932-.653-9.591-5.22-9.591-12.476l-.374-11.732c3.915 10.71 14.337 14.246 18.618 14.246 5.12 0 16.76-2.793 20.11-23.185v20.858h37.897v-20.576c4.841 31.66 59.96 31.286 63.314-8.569h-26.165c-1.022 5.681-3.537 10.244-8.287 10.244-5.864 0-8.378-6.799-8.752-14.246-.187-2.697-.279-5.586-.187-7.352h44.135c.465-9.03.931-22.998-5.773-36.218-5.307-10.24-15.551-18.344-30.075-18.344l.056-.008zm-295.156 23.372h-7.447v-28.58h7.351c5.773 0 9.031 4.842 9.031 14.151.087 10.24-2.236 14.246-8.939 14.433l.004-.004zm56.237 12.006c.374-7.543 2.98-14.712 8.939-14.712 5.864 0 8.195 7.169 8.57 14.712.087 2.514.187 2.697 0 4.568h-17.505c-.187-1.862-.187-1.958 0-4.568h-.004zm17.313 30.537c-.931 5.681-3.537 10.244-8.287 10.149-5.864 0-8.378-6.799-8.752-14.247-.187-2.697-.279-5.585-.187-7.351h38.732c.087 4.467.279 5.681 1.392 11.353h-22.903l.005.096zm57.637 10.427c-6.89-.087-9.591-12.289-9.591-27.562 0-15.181 2.888-27.652 9.591-27.561 6.891.087 9.592 12.289 9.592 27.561 0 15.273-2.61 27.653-9.592 27.562zm67.412-.187c-5.394 0-7.264-5.772-7.264-13.502v-28.214c-.279-9.592 2.514-14.151 7.917-13.964 5.585.278 8.843 7.447 8.843 28.397.087 19.088-3.536 27.283-9.496 27.283zm105.679-36.218h-17.504c-.187-1.862-.087-2.045 0-4.568.374-7.543 2.888-14.15 8.752-14.15 5.864 0 8.378 6.612 8.752 14.15.187 2.61.187 2.697 0 4.568z" fill="#000"/></svg>